<mxfile host="app.diagrams.net" agent="Mozilla/5.0 (Windows NT 10.0; Win64; x64) AppleWebKit/537.36 (KHTML, like Gecko) Chrome/139.0.0.0 Safari/537.36" version="28.1.1">
  <diagram name="Page-1" id="BU1dtLlbA-myyAbJiJWD">
    <mxGraphModel dx="786" dy="417" grid="1" gridSize="20" guides="1" tooltips="1" connect="1" arrows="1" fold="1" page="1" pageScale="1" pageWidth="850" pageHeight="1100" math="0" shadow="0">
      <root>
        <mxCell id="0" />
        <mxCell id="1" parent="0" />
        <mxCell id="5XFbLzYGsqIvcGkMD14L-1" value="" style="rounded=0;whiteSpace=wrap;html=1;" vertex="1" parent="1">
          <mxGeometry x="340" y="200" width="120" height="60" as="geometry" />
        </mxCell>
        <mxCell id="5XFbLzYGsqIvcGkMD14L-2" value="user" style="rounded=0;whiteSpace=wrap;html=1;" vertex="1" parent="1">
          <mxGeometry x="340" y="200" width="120" height="60" as="geometry" />
        </mxCell>
        <mxCell id="5XFbLzYGsqIvcGkMD14L-5" value="" style="rounded=0;whiteSpace=wrap;html=1;" vertex="1" parent="1">
          <mxGeometry x="340" y="200" width="120" height="60" as="geometry" />
        </mxCell>
        <mxCell id="5XFbLzYGsqIvcGkMD14L-6" value="USER" style="rounded=0;whiteSpace=wrap;html=1;" vertex="1" parent="1">
          <mxGeometry x="340" y="200" width="120" height="60" as="geometry" />
        </mxCell>
        <mxCell id="5XFbLzYGsqIvcGkMD14L-7" value="CONTACT" style="rounded=0;whiteSpace=wrap;html=1;" vertex="1" parent="1">
          <mxGeometry x="480" y="490" width="120" height="60" as="geometry" />
        </mxCell>
        <mxCell id="5XFbLzYGsqIvcGkMD14L-8" value="Id" style="ellipse;whiteSpace=wrap;html=1;" vertex="1" parent="1">
          <mxGeometry x="140" y="80" width="80" height="40" as="geometry" />
        </mxCell>
        <mxCell id="5XFbLzYGsqIvcGkMD14L-9" value="Name" style="ellipse;whiteSpace=wrap;html=1;" vertex="1" parent="1">
          <mxGeometry x="220" y="40" width="60" height="40" as="geometry" />
        </mxCell>
        <mxCell id="5XFbLzYGsqIvcGkMD14L-10" value="Email" style="ellipse;whiteSpace=wrap;html=1;" vertex="1" parent="1">
          <mxGeometry x="300" y="40" width="80" height="40" as="geometry" />
        </mxCell>
        <mxCell id="5XFbLzYGsqIvcGkMD14L-11" style="edgeStyle=orthogonalEdgeStyle;rounded=0;orthogonalLoop=1;jettySize=auto;html=1;exitX=0.5;exitY=0;exitDx=0;exitDy=0;entryX=0.333;entryY=0;entryDx=0;entryDy=0;entryPerimeter=0;" edge="1" parent="1" source="5XFbLzYGsqIvcGkMD14L-9" target="5XFbLzYGsqIvcGkMD14L-9">
          <mxGeometry relative="1" as="geometry" />
        </mxCell>
        <mxCell id="5XFbLzYGsqIvcGkMD14L-14" value="Pasword" style="ellipse;whiteSpace=wrap;html=1;" vertex="1" parent="1">
          <mxGeometry x="400" y="40" width="80" height="40" as="geometry" />
        </mxCell>
        <mxCell id="5XFbLzYGsqIvcGkMD14L-15" value="Image" style="ellipse;whiteSpace=wrap;html=1;" vertex="1" parent="1">
          <mxGeometry x="460" y="80" width="80" height="40" as="geometry" />
        </mxCell>
        <mxCell id="5XFbLzYGsqIvcGkMD14L-16" value="about" style="ellipse;whiteSpace=wrap;html=1;" vertex="1" parent="1">
          <mxGeometry x="480" y="140" width="80" height="40" as="geometry" />
        </mxCell>
        <mxCell id="5XFbLzYGsqIvcGkMD14L-17" value="Enabled" style="ellipse;whiteSpace=wrap;html=1;" vertex="1" parent="1">
          <mxGeometry x="120" y="140" width="80" height="40" as="geometry" />
        </mxCell>
        <mxCell id="5XFbLzYGsqIvcGkMD14L-18" value="Role" style="ellipse;whiteSpace=wrap;html=1;" vertex="1" parent="1">
          <mxGeometry x="120" y="200" width="80" height="40" as="geometry" />
        </mxCell>
        <mxCell id="5XFbLzYGsqIvcGkMD14L-20" value="" style="endArrow=classic;html=1;rounded=0;" edge="1" parent="1">
          <mxGeometry width="50" height="50" relative="1" as="geometry">
            <mxPoint x="430" y="200" as="sourcePoint" />
            <mxPoint x="480" y="160" as="targetPoint" />
          </mxGeometry>
        </mxCell>
        <mxCell id="5XFbLzYGsqIvcGkMD14L-44" value="" style="endArrow=classic;html=1;rounded=0;" edge="1" parent="1">
          <mxGeometry width="50" height="50" relative="1" as="geometry">
            <mxPoint x="480" y="160" as="sourcePoint" />
            <mxPoint x="480" y="160" as="targetPoint" />
            <Array as="points">
              <mxPoint x="480" y="160" />
            </Array>
          </mxGeometry>
        </mxCell>
        <mxCell id="5XFbLzYGsqIvcGkMD14L-54" value="" style="endArrow=classic;html=1;rounded=0;" edge="1" parent="1">
          <mxGeometry width="50" height="50" relative="1" as="geometry">
            <mxPoint x="400" y="200" as="sourcePoint" />
            <mxPoint x="480" y="160" as="targetPoint" />
            <Array as="points">
              <mxPoint x="480" y="160" />
            </Array>
          </mxGeometry>
        </mxCell>
        <mxCell id="5XFbLzYGsqIvcGkMD14L-55" value="" style="endArrow=classic;html=1;rounded=0;exitX=0.5;exitY=0;exitDx=0;exitDy=0;" edge="1" parent="1" source="5XFbLzYGsqIvcGkMD14L-6">
          <mxGeometry width="50" height="50" relative="1" as="geometry">
            <mxPoint x="415" y="140" as="sourcePoint" />
            <mxPoint x="465" y="100" as="targetPoint" />
            <Array as="points">
              <mxPoint x="465" y="100" />
            </Array>
          </mxGeometry>
        </mxCell>
        <mxCell id="5XFbLzYGsqIvcGkMD14L-56" value="" style="endArrow=classic;html=1;rounded=0;exitX=0.5;exitY=0;exitDx=0;exitDy=0;" edge="1" parent="1" source="5XFbLzYGsqIvcGkMD14L-6">
          <mxGeometry width="50" height="50" relative="1" as="geometry">
            <mxPoint x="220" y="120" as="sourcePoint" />
            <mxPoint x="270" y="80" as="targetPoint" />
            <Array as="points">
              <mxPoint x="270" y="80" />
            </Array>
          </mxGeometry>
        </mxCell>
        <mxCell id="5XFbLzYGsqIvcGkMD14L-57" value="" style="endArrow=classic;html=1;rounded=0;" edge="1" parent="1">
          <mxGeometry width="50" height="50" relative="1" as="geometry">
            <mxPoint x="400" y="200" as="sourcePoint" />
            <mxPoint x="350" y="80" as="targetPoint" />
            <Array as="points">
              <mxPoint x="350" y="80" />
            </Array>
          </mxGeometry>
        </mxCell>
        <mxCell id="5XFbLzYGsqIvcGkMD14L-58" value="" style="endArrow=classic;html=1;rounded=0;exitX=0.5;exitY=0;exitDx=0;exitDy=0;" edge="1" parent="1" source="5XFbLzYGsqIvcGkMD14L-6">
          <mxGeometry width="50" height="50" relative="1" as="geometry">
            <mxPoint x="170" y="160" as="sourcePoint" />
            <mxPoint x="220" y="120" as="targetPoint" />
            <Array as="points">
              <mxPoint x="220" y="120" />
            </Array>
          </mxGeometry>
        </mxCell>
        <mxCell id="5XFbLzYGsqIvcGkMD14L-59" value="" style="endArrow=classic;html=1;rounded=0;" edge="1" parent="1">
          <mxGeometry width="50" height="50" relative="1" as="geometry">
            <mxPoint x="400" y="200" as="sourcePoint" />
            <mxPoint x="200" y="180" as="targetPoint" />
            <Array as="points">
              <mxPoint x="200" y="180" />
            </Array>
          </mxGeometry>
        </mxCell>
        <mxCell id="5XFbLzYGsqIvcGkMD14L-60" value="" style="endArrow=classic;html=1;rounded=0;" edge="1" parent="1">
          <mxGeometry width="50" height="50" relative="1" as="geometry">
            <mxPoint x="400" y="200" as="sourcePoint" />
            <mxPoint x="430" y="80" as="targetPoint" />
            <Array as="points">
              <mxPoint x="430" y="80" />
            </Array>
          </mxGeometry>
        </mxCell>
        <mxCell id="5XFbLzYGsqIvcGkMD14L-61" value="" style="endArrow=classic;html=1;rounded=0;" edge="1" parent="1">
          <mxGeometry width="50" height="50" relative="1" as="geometry">
            <mxPoint x="380" y="200" as="sourcePoint" />
            <mxPoint x="205" y="220" as="targetPoint" />
          </mxGeometry>
        </mxCell>
        <mxCell id="5XFbLzYGsqIvcGkMD14L-62" value="Phone" style="ellipse;whiteSpace=wrap;html=1;" vertex="1" parent="1">
          <mxGeometry x="320" y="550" width="80" height="40" as="geometry" />
        </mxCell>
        <mxCell id="5XFbLzYGsqIvcGkMD14L-65" style="edgeStyle=orthogonalEdgeStyle;rounded=0;orthogonalLoop=1;jettySize=auto;html=1;exitX=1;exitY=1;exitDx=0;exitDy=0;" edge="1" parent="1" source="5XFbLzYGsqIvcGkMD14L-63" target="5XFbLzYGsqIvcGkMD14L-64">
          <mxGeometry relative="1" as="geometry">
            <Array as="points">
              <mxPoint x="380" y="534" />
              <mxPoint x="380" y="540" />
              <mxPoint x="360" y="540" />
            </Array>
          </mxGeometry>
        </mxCell>
        <mxCell id="5XFbLzYGsqIvcGkMD14L-63" value="description" style="ellipse;whiteSpace=wrap;html=1;" vertex="1" parent="1">
          <mxGeometry x="320" y="500" width="80" height="40" as="geometry" />
        </mxCell>
        <mxCell id="5XFbLzYGsqIvcGkMD14L-64" value="Cid&amp;nbsp;" style="ellipse;whiteSpace=wrap;html=1;" vertex="1" parent="1">
          <mxGeometry x="320" y="440" width="80" height="40" as="geometry" />
        </mxCell>
        <mxCell id="5XFbLzYGsqIvcGkMD14L-66" value="Name" style="ellipse;whiteSpace=wrap;html=1;" vertex="1" parent="1">
          <mxGeometry x="385" y="380" width="80" height="40" as="geometry" />
        </mxCell>
        <mxCell id="5XFbLzYGsqIvcGkMD14L-67" value="Nickname" style="ellipse;whiteSpace=wrap;html=1;" vertex="1" parent="1">
          <mxGeometry x="480" y="380" width="80" height="40" as="geometry" />
        </mxCell>
        <mxCell id="5XFbLzYGsqIvcGkMD14L-68" value="work" style="ellipse;whiteSpace=wrap;html=1;" vertex="1" parent="1">
          <mxGeometry x="580" y="380" width="80" height="40" as="geometry" />
        </mxCell>
        <mxCell id="5XFbLzYGsqIvcGkMD14L-69" value="Email" style="ellipse;whiteSpace=wrap;html=1;" vertex="1" parent="1">
          <mxGeometry x="660" y="420" width="80" height="40" as="geometry" />
        </mxCell>
        <mxCell id="5XFbLzYGsqIvcGkMD14L-70" value="Image" style="ellipse;whiteSpace=wrap;html=1;" vertex="1" parent="1">
          <mxGeometry x="700" y="480" width="80" height="40" as="geometry" />
        </mxCell>
        <mxCell id="5XFbLzYGsqIvcGkMD14L-71" value="" style="endArrow=none;html=1;rounded=0;entryX=0.008;entryY=0.7;entryDx=0;entryDy=0;entryPerimeter=0;" edge="1" parent="1" target="5XFbLzYGsqIvcGkMD14L-69">
          <mxGeometry width="50" height="50" relative="1" as="geometry">
            <mxPoint x="600" y="500" as="sourcePoint" />
            <mxPoint x="650" y="450" as="targetPoint" />
          </mxGeometry>
        </mxCell>
        <mxCell id="5XFbLzYGsqIvcGkMD14L-72" value="" style="endArrow=none;html=1;rounded=0;entryX=0;entryY=0.5;entryDx=0;entryDy=0;exitX=1;exitY=0.5;exitDx=0;exitDy=0;" edge="1" parent="1" source="5XFbLzYGsqIvcGkMD14L-7" target="5XFbLzYGsqIvcGkMD14L-70">
          <mxGeometry width="50" height="50" relative="1" as="geometry">
            <mxPoint x="620" y="520" as="sourcePoint" />
            <mxPoint x="681" y="468" as="targetPoint" />
          </mxGeometry>
        </mxCell>
        <mxCell id="5XFbLzYGsqIvcGkMD14L-73" value="" style="endArrow=none;html=1;rounded=0;entryX=0;entryY=0.5;entryDx=0;entryDy=0;exitX=0.5;exitY=0;exitDx=0;exitDy=0;" edge="1" parent="1" source="5XFbLzYGsqIvcGkMD14L-7">
          <mxGeometry width="50" height="50" relative="1" as="geometry">
            <mxPoint x="520" y="440" as="sourcePoint" />
            <mxPoint x="620" y="420" as="targetPoint" />
          </mxGeometry>
        </mxCell>
        <mxCell id="5XFbLzYGsqIvcGkMD14L-74" value="" style="endArrow=none;html=1;rounded=0;entryX=0.5;entryY=1;entryDx=0;entryDy=0;" edge="1" parent="1" target="5XFbLzYGsqIvcGkMD14L-67">
          <mxGeometry width="50" height="50" relative="1" as="geometry">
            <mxPoint x="540" y="480" as="sourcePoint" />
            <mxPoint x="540" y="480" as="targetPoint" />
            <Array as="points" />
          </mxGeometry>
        </mxCell>
        <mxCell id="5XFbLzYGsqIvcGkMD14L-75" value="" style="endArrow=none;html=1;rounded=0;entryX=0.688;entryY=1;entryDx=0;entryDy=0;entryPerimeter=0;" edge="1" parent="1" target="5XFbLzYGsqIvcGkMD14L-66">
          <mxGeometry width="50" height="50" relative="1" as="geometry">
            <mxPoint x="534" y="490" as="sourcePoint" />
            <mxPoint x="439.5" y="420" as="targetPoint" />
          </mxGeometry>
        </mxCell>
        <mxCell id="5XFbLzYGsqIvcGkMD14L-76" value="" style="endArrow=none;html=1;rounded=0;entryX=0;entryY=0.5;entryDx=0;entryDy=0;exitX=0.422;exitY=0.011;exitDx=0;exitDy=0;exitPerimeter=0;" edge="1" parent="1" source="5XFbLzYGsqIvcGkMD14L-7">
          <mxGeometry width="50" height="50" relative="1" as="geometry">
            <mxPoint x="500.5" y="520" as="sourcePoint" />
            <mxPoint x="400" y="460" as="targetPoint" />
          </mxGeometry>
        </mxCell>
        <mxCell id="5XFbLzYGsqIvcGkMD14L-77" value="" style="endArrow=none;html=1;rounded=0;entryX=0;entryY=0.5;entryDx=0;entryDy=0;exitX=0;exitY=0.5;exitDx=0;exitDy=0;" edge="1" parent="1" source="5XFbLzYGsqIvcGkMD14L-7">
          <mxGeometry width="50" height="50" relative="1" as="geometry">
            <mxPoint x="531" y="550" as="sourcePoint" />
            <mxPoint x="400" y="519" as="targetPoint" />
          </mxGeometry>
        </mxCell>
        <mxCell id="5XFbLzYGsqIvcGkMD14L-78" value="" style="endArrow=none;html=1;rounded=0;entryX=0;entryY=0.5;entryDx=0;entryDy=0;exitX=0;exitY=0.75;exitDx=0;exitDy=0;" edge="1" parent="1" source="5XFbLzYGsqIvcGkMD14L-7">
          <mxGeometry width="50" height="50" relative="1" as="geometry">
            <mxPoint x="480" y="570.5" as="sourcePoint" />
            <mxPoint x="400" y="569.5" as="targetPoint" />
          </mxGeometry>
        </mxCell>
        <mxCell id="5XFbLzYGsqIvcGkMD14L-79" value="Has" style="rhombus;whiteSpace=wrap;html=1;" vertex="1" parent="1">
          <mxGeometry x="160" y="380" width="80" height="80" as="geometry" />
        </mxCell>
        <mxCell id="5XFbLzYGsqIvcGkMD14L-81" value="" style="curved=1;endArrow=classic;html=1;rounded=0;exitX=0.5;exitY=1;exitDx=0;exitDy=0;" edge="1" parent="1" source="5XFbLzYGsqIvcGkMD14L-85">
          <mxGeometry width="50" height="50" relative="1" as="geometry">
            <mxPoint x="200" y="545" as="sourcePoint" />
            <mxPoint x="520" y="560" as="targetPoint" />
            <Array as="points">
              <mxPoint x="250" y="545" />
              <mxPoint x="200" y="495" />
              <mxPoint x="220" y="680" />
              <mxPoint x="400" y="700" />
            </Array>
          </mxGeometry>
        </mxCell>
        <mxCell id="5XFbLzYGsqIvcGkMD14L-82" value="" style="curved=1;endArrow=classic;html=1;rounded=0;entryX=0.5;entryY=1;entryDx=0;entryDy=0;" edge="1" parent="1" source="5XFbLzYGsqIvcGkMD14L-83" target="5XFbLzYGsqIvcGkMD14L-6">
          <mxGeometry width="50" height="50" relative="1" as="geometry">
            <mxPoint x="200" y="380" as="sourcePoint" />
            <mxPoint x="250" y="330" as="targetPoint" />
            <Array as="points">
              <mxPoint x="200" y="330" />
            </Array>
          </mxGeometry>
        </mxCell>
        <mxCell id="5XFbLzYGsqIvcGkMD14L-84" value="" style="curved=1;endArrow=classic;html=1;rounded=0;entryX=0.5;entryY=1;entryDx=0;entryDy=0;" edge="1" parent="1" target="5XFbLzYGsqIvcGkMD14L-83">
          <mxGeometry width="50" height="50" relative="1" as="geometry">
            <mxPoint x="200" y="380" as="sourcePoint" />
            <mxPoint x="400" y="260" as="targetPoint" />
            <Array as="points">
              <mxPoint x="250" y="380" />
            </Array>
          </mxGeometry>
        </mxCell>
        <mxCell id="5XFbLzYGsqIvcGkMD14L-83" value="one to one relation" style="text;html=1;align=center;verticalAlign=middle;whiteSpace=wrap;rounded=0;" vertex="1" parent="1">
          <mxGeometry x="260" y="320" width="60" height="30" as="geometry" />
        </mxCell>
        <mxCell id="5XFbLzYGsqIvcGkMD14L-86" value="" style="curved=1;endArrow=classic;html=1;rounded=0;exitX=0.5;exitY=1;exitDx=0;exitDy=0;" edge="1" parent="1" source="5XFbLzYGsqIvcGkMD14L-79" target="5XFbLzYGsqIvcGkMD14L-85">
          <mxGeometry width="50" height="50" relative="1" as="geometry">
            <mxPoint x="200" y="460" as="sourcePoint" />
            <mxPoint x="520" y="560" as="targetPoint" />
            <Array as="points" />
          </mxGeometry>
        </mxCell>
        <mxCell id="5XFbLzYGsqIvcGkMD14L-85" value="one to many relation" style="text;html=1;align=center;verticalAlign=middle;whiteSpace=wrap;rounded=0;" vertex="1" parent="1">
          <mxGeometry x="200" y="640" width="60" height="30" as="geometry" />
        </mxCell>
      </root>
    </mxGraphModel>
  </diagram>
</mxfile>
